HIERARCHY
ROOT Haolin_V1:Solving:Hips
{
	OFFSET 0.000000 0.000000 0.000000
	CHANNELS 6 Xposition Yposition Zposition Xrotation Yrotation Zrotation
	JOINT Haolin_V1:Solving:Spine
	{
		OFFSET 0.000000 -12.731938 2.520517
		CHANNELS 6 Xposition Yposition Zposition Xrotation Yrotation Zrotation
		JOINT Haolin_V1:Solving:Spine1
		{
			OFFSET 0.000000 -8.486854 1.496462
			CHANNELS 6 Xposition Yposition Zposition Xrotation Yrotation Zrotation
			JOINT Haolin_V1:Solving:Spine2
			{
				OFFSET 0.000000 -8.584984 0.751091
				CHANNELS 6 Xposition Yposition Zposition Xrotation Yrotation Zrotation
				JOINT Haolin_V1:Solving:Spine3
				{
					OFFSET 0.000000 -8.617775 0.000000
					CHANNELS 6 Xposition Yposition Zposition Xrotation Yrotation Zrotation
					JOINT Haolin_V1:Solving:Neck
					{
						OFFSET 0.000000 -11.080002 -1.107998
						CHANNELS 6 Xposition Yposition Zposition Xrotation Yrotation Zrotation
						JOINT Haolin_V1:Solving:Neck1
						{
							OFFSET 0.000000 -8.314011 -0.727381
							CHANNELS 6 Xposition Yposition Zposition Xrotation Yrotation Zrotation
							JOINT Haolin_V1:Solving:Head
							{
								OFFSET 0.000000 -8.218975 -1.449226
								CHANNELS 6 Xposition Yposition Zposition Xrotation Yrotation Zrotation
								JOINT Haolin_V1:Solving:HeadEnd
								{
									OFFSET 0.000000 -9.728081 0.000002
									CHANNELS 6 Xposition Yposition Zposition Xrotation Yrotation Zrotation
									End Site
									{
										OFFSET 0.000000 -9.728081 0.000002
									}
								}
							}
						}
					}
					JOINT Haolin_V1:Solving:RightShoulder
					{
						OFFSET 0.000000 -7.914288 -5.288076
						CHANNELS 6 Xposition Yposition Zposition Xrotation Yrotation Zrotation
						JOINT Haolin_V1:Solving:RightArm
						{
							OFFSET -20.201836 -0.000008 0.000000
							CHANNELS 6 Xposition Yposition Zposition Xrotation Yrotation Zrotation
							JOINT Haolin_V1:Solving:RightForeArm
							{
								OFFSET -29.446457 -0.000008 0.000000
								CHANNELS 6 Xposition Yposition Zposition Xrotation Yrotation Zrotation
								JOINT Haolin_V1:Solving:RightHand
								{
									OFFSET -23.111885 -0.000008 0.000000
									CHANNELS 6 Xposition Yposition Zposition Xrotation Yrotation Zrotation
									JOINT Haolin_V1:Solving:RightHandThumb1
									{
										OFFSET -3.824379 2.925484 -2.843767
										CHANNELS 6 Xposition Yposition Zposition Xrotation Yrotation Zrotation
										End Site
										{
											OFFSET -5.557076 0.000000 -5.608460
										}
									}
									JOINT Haolin_V1:Solving:RightHandMiddle1
									{
										OFFSET -10.198334 -0.000004 0.065374
										CHANNELS 6 Xposition Yposition Zposition Xrotation Yrotation Zrotation
										End Site
										{
											OFFSET -7.895309 -0.000004 0.000000
										}
									}
								}
							}
						}
					}
					JOINT Haolin_V1:Solving:LeftShoulder
					{
						OFFSET 0.000000 -7.914288 -5.288076
						CHANNELS 6 Xposition Yposition Zposition Xrotation Yrotation Zrotation
						JOINT Haolin_V1:Solving:LeftArm
						{
							OFFSET 20.201836 -0.000008 0.000000
							CHANNELS 6 Xposition Yposition Zposition Xrotation Yrotation Zrotation
							JOINT Haolin_V1:Solving:LeftForeArm
							{
								OFFSET 29.446457 -0.000008 0.000000
								CHANNELS 6 Xposition Yposition Zposition Xrotation Yrotation Zrotation
								JOINT Haolin_V1:Solving:LeftHand
								{
									OFFSET 23.111885 -0.000008 0.000000
									CHANNELS 6 Xposition Yposition Zposition Xrotation Yrotation Zrotation
									JOINT Haolin_V1:Solving:LeftHandThumb1
									{
										OFFSET 3.824379 2.925484 -2.843767
										CHANNELS 6 Xposition Yposition Zposition Xrotation Yrotation Zrotation
										End Site
										{
											OFFSET 5.557076 0.000000 -5.608460
										}
									}
									JOINT Haolin_V1:Solving:LeftHandMiddle1
									{
										OFFSET 10.198334 -0.000004 0.065374
										CHANNELS 6 Xposition Yposition Zposition Xrotation Yrotation Zrotation
										End Site
										{
											OFFSET 7.895309 -0.000004 0.000000
										}
									}
								}
							}
						}
					}
				}
			}
		}
	}
	JOINT Haolin_V1:Solving:RightUpLeg
	{
		OFFSET -10.695510 0.000000 0.000000
		CHANNELS 6 Xposition Yposition Zposition Xrotation Yrotation Zrotation
		JOINT Haolin_V1:Solving:RightLeg
		{
			OFFSET 0.000000 46.236332 -0.000006
			CHANNELS 6 Xposition Yposition Zposition Xrotation Yrotation Zrotation
			JOINT Haolin_V1:Solving:RightFoot
			{
				OFFSET 0.000000 41.248135 -0.000006
				CHANNELS 6 Xposition Yposition Zposition Xrotation Yrotation Zrotation
				JOINT Haolin_V1:Solving:RightForeFoot
				{
					OFFSET 0.000000 3.207336 -0.000000
					CHANNELS 6 Xposition Yposition Zposition Xrotation Yrotation Zrotation
					JOINT Haolin_V1:Solving:RightToeBase
					{
						OFFSET 0.000000 0.000000 -12.560947
						CHANNELS 6 Xposition Yposition Zposition Xrotation Yrotation Zrotation
						JOINT Haolin_V1:Solving:RightToeBaseEnd
						{
							OFFSET 0.000000 0.000000 -3.517768
							CHANNELS 6 Xposition Yposition Zposition Xrotation Yrotation Zrotation
							End Site
							{
								OFFSET 0.000000 -3.517769 0.000004
							}
						}
					}
				}
			}
		}
	}
	JOINT Haolin_V1:Solving:LeftUpLeg
	{
		OFFSET 10.695510 0.000000 0.000000
		CHANNELS 6 Xposition Yposition Zposition Xrotation Yrotation Zrotation
		JOINT Haolin_V1:Solving:LeftLeg
		{
			OFFSET 0.000000 46.236332 -0.000006
			CHANNELS 6 Xposition Yposition Zposition Xrotation Yrotation Zrotation
			JOINT Haolin_V1:Solving:LeftFoot
			{
				OFFSET 0.000000 41.248135 -0.000006
				CHANNELS 6 Xposition Yposition Zposition Xrotation Yrotation Zrotation
				JOINT Haolin_V1:Solving:LeftForeFoot
				{
					OFFSET 0.000000 3.207336 -0.000000
					CHANNELS 6 Xposition Yposition Zposition Xrotation Yrotation Zrotation
					JOINT Haolin_V1:Solving:LeftToeBase
					{
						OFFSET 0.000000 0.000000 -12.560947
						CHANNELS 6 Xposition Yposition Zposition Xrotation Yrotation Zrotation
						JOINT Haolin_V1:Solving:LeftToeBaseEnd
						{
							OFFSET 0.000000 0.000000 -3.901837
							CHANNELS 6 Xposition Yposition Zposition Xrotation Yrotation Zrotation
							End Site
							{
								OFFSET 0.000000 -3.901840 0.000004
							}
						}
					}
				}
			}
		}
	}
}
MOTION
Frames: 4
Frame Time: 0.041667
4.788263 -106.681870 -95.198105 86.762295 3.066217 -0.409349 -0.000000 -12.731927 2.520516 11.124522 -0.403117 -0.800431 0.000001 -8.486879 1.496448 -0.018547 -0.142440 0.378442 -0.000000 -8.584979 0.751089 -5.238740 -0.219803 1.207762 -0.000001 -8.617782 0.000020 -3.418449 -0.248485 1.978397 -0.000000 -11.080013 -1.108009 1.854792 0.873847 -0.776464 0.000000 -8.314042 -0.727359 3.504952 -1.027651 -1.467086 -0.000000 -8.218993 -1.449235 11.124111 0.084699 -2.070061 -0.000002 -9.728043 -0.000016 0.000000 0.000000 0.000000 -0.000002 -7.914272 -5.288088 -0.000004 16.647920 13.013629 -20.201822 -0.000027 -0.000008 -2.277543 -48.122542 -89.275196 -29.446447 0.000003 0.000019 18.505052 -20.206263 6.594253 -23.111917 -0.000011 0.000005 -0.012966 0.454994 1.631266 -3.824415 2.925494 -2.843773 0.000004 -0.000003 0.000002 -10.198382 0.000005 0.065365 -0.000001 -0.000002 -0.000003 0.000003 -7.914246 -5.288087 -0.000003 -12.275557 -12.674175 20.201824 -0.000013 0.000008 -6.687768 26.348824 92.776802 29.446434 -0.000005 0.000010 113.111853 -3.771633 -8.762034 23.111906 -0.000046 -0.000003 179.903494 10.132135 0.548440 3.824365 2.925468 -2.843764 0.000005 -0.000002 0.000002 10.198323 -0.000008 0.065375 -0.000007 0.000004 -0.000004 -10.695508 0.000031 -0.000018 5.146118 10.428641 2.842178 -0.000001 46.236340 -0.000003 -1.617247 -0.000000 -0.000000 -0.000001 41.248135 -0.000001 -0.988427 -2.995372 -5.493281 0.000001 3.207336 0.000005 0.000000 0.000001 -0.000000 0.000004 0.000005 -12.560946 8.880135 0.000001 -0.000000 -0.000002 0.000007 -3.517778 -0.000001 -0.000001 0.000001 10.695512 0.000003 0.000010 3.559489 -13.995343 2.990735 0.000001 46.236351 -0.000028 3.209264 0.000003 -0.000000 -0.000001 41.248138 -0.000013 -5.164062 -9.367447 -4.264751 0.000005 3.207336 -0.000007 0.000000 -0.000002 0.000000 0.000001 -0.000008 -12.560955 13.846506 -0.000006 0.000000 -0.000002 -0.000008 -3.901853 -0.000000 -0.000001 -0.000000 
4.820393 -106.714844 -95.201157 86.798556 3.117564 -0.377858 -0.000000 -12.731964 2.520513 11.167294 -0.408987 -0.797452 -0.000000 -8.486849 1.496444 -0.017373 -0.142415 0.381022 -0.000001 -8.584983 0.751118 -5.242434 -0.199191 1.205110 0.000000 -8.617779 0.000000 -3.426838 -0.241778 1.971266 0.000001 -11.079965 -1.108012 1.854737 0.846565 -0.757555 0.000001 -8.313994 -0.727379 3.439695 -1.067458 -1.495451 0.000001 -8.218961 -1.449228 11.063359 0.087209 -2.091040 -0.000000 -9.728073 0.000000 0.000003 -0.000000 -0.000000 0.000001 -7.914242 -5.288096 -0.000012 16.585871 12.992332 -20.201836 -0.000042 -0.000019 -2.479182 -48.794957 -89.713415 -29.446482 -0.000015 -0.000024 18.573721 -20.464015 6.700415 -23.111866 -0.000004 -0.000003 -0.016986 0.428534 2.269401 -3.824396 2.925455 -2.843767 -0.000002 -0.000002 -0.000003 -10.198354 -0.000023 0.065376 -0.000001 0.000000 0.000003 0.000000 -7.914257 -5.288096 -0.000010 -12.232792 -12.607430 20.201824 -0.000009 -0.000008 -6.864285 26.296621 92.931595 29.446449 -0.000007 -0.000012 114.376866 -4.014014 -8.781652 23.111862 -0.000004 -0.000021 179.829619 9.922259 0.988617 3.824384 2.925475 -2.843765 0.000002 -0.000002 -0.000003 10.198318 -0.000026 0.065368 -0.000000 -0.000004 -0.000000 -10.695511 -0.000038 -0.000011 5.076237 10.645853 2.829068 -0.000005 46.236336 -0.000023 -1.636169 -0.000004 -0.000000 -0.000003 41.248146 -0.000009 -0.908072 -3.273500 -5.459210 0.000003 3.207336 -0.000010 -0.000000 0.000001 -0.000000 0.000003 -0.000028 -12.560966 8.854763 0.000000 -0.000000 0.000001 0.000000 -3.517763 0.000001 -0.000001 0.000000 10.695510 -0.000019 -0.000005 3.475301 -13.878310 2.977272 0.000007 46.236340 -0.000030 3.251699 0.000001 -0.000000 -0.000003 41.248154 -0.000003 -5.175478 -9.539056 -4.271390 0.000012 3.207329 0.000006 -0.000000 0.000000 0.000000 0.000004 -0.000005 -12.560955 13.748944 0.000001 0.000000 0.000006 -0.000007 -3.901834 0.000001 0.000003 -0.000000 
4.864606 -106.747589 -95.201248 86.835542 3.155086 -0.366253 -0.000000 -12.731949 2.520502 11.203714 -0.418821 -0.788853 -0.000000 -8.486841 1.496441 -0.024147 -0.142686 0.380784 0.000000 -8.585005 0.751094 -5.243311 -0.162645 1.210316 -0.000001 -8.617786 0.000008 -3.433167 -0.230750 1.970316 -0.000000 -11.080009 -1.107973 1.844296 0.818305 -0.753020 -0.000001 -8.314028 -0.727365 3.389176 -1.110406 -1.498951 0.000000 -8.218944 -1.449255 11.032976 0.088560 -2.096124 0.000001 -9.728065 -0.000016 0.000000 0.000000 -0.000000 -0.000001 -7.914299 -5.288049 -0.000004 16.492361 12.980436 -20.201830 -0.000021 0.000012 -2.686968 -49.387653 -90.156161 -29.446442 0.000002 0.000001 18.687833 -20.702315 6.818634 -23.111877 -0.000020 0.000022 -0.019092 0.382151 2.858952 -3.824403 2.925478 -2.843770 0.000004 0.000002 -0.000001 -10.198319 0.000006 0.065366 0.000002 -0.000001 -0.000001 0.000001 -7.914303 -5.288049 -0.000005 -12.161646 -12.584757 20.201830 0.000002 0.000002 -7.060034 26.874546 93.075992 29.446478 -0.000007 -0.000002 114.973531 -4.164687 -8.862698 23.111879 -0.000012 0.000006 179.751919 9.762833 1.462653 3.824412 2.925478 -2.843782 0.000002 0.000000 -0.000006 10.198351 -0.000017 0.065368 -0.000006 0.000001 -0.000007 -10.695511 -0.000002 -0.000009 4.977092 10.643875 2.851433 -0.000001 46.236340 -0.000007 -1.573941 -0.000000 0.000000 -0.000003 41.248135 -0.000008 -0.904668 -3.314543 -5.459518 -0.000004 3.207336 0.000009 0.000000 0.000001 0.000000 -0.000002 -0.000010 -12.560948 8.847871 -0.000001 0.000001 -0.000002 0.000000 -3.517793 0.000001 -0.000002 0.000000 10.695513 -0.000017 -0.000014 3.387368 -13.715229 2.992850 0.000005 46.236343 -0.000007 3.306589 -0.000001 -0.000000 -0.000002 41.248127 -0.000010 -5.208692 -9.737512 -4.362483 0.000001 3.207329 0.000012 -0.000000 -0.000003 0.000000 0.000005 -0.000006 -12.560953 13.585229 -0.000001 -0.000000 -0.000001 -0.000007 -3.901808 0.000001 0.000001 -0.000000 
4.957769 -106.851173 -95.168396 87.125763 3.249386 -0.542821 -0.000000 -12.731965 2.520545 11.152108 -0.429816 -0.784341 0.000000 -8.486862 1.496470 -0.138158 -0.171604 0.516801 -0.000000 -8.584980 0.751077 -5.356231 -0.140362 1.357260 -0.000000 -8.617757 -0.000001 -3.411611 -0.214788 1.898833 0.000000 -11.079999 -1.107994 1.758609 0.735880 -0.748893 0.000000 -8.313988 -0.727385 3.375838 -1.282130 -1.470640 0.000000 -8.218987 -1.449194 11.083328 0.068403 -2.044874 -0.000000 -9.728081 0.000025 -0.000001 0.000000 -0.000000 -0.000002 -7.914280 -5.288070 -0.000008 16.414850 12.999525 -20.201826 -0.000041 -0.000021 -2.939003 -49.965771 -90.659239 -29.446457 -0.000002 -0.000017 18.777701 -20.928552 6.924424 -23.111877 -0.000010 0.000022 -0.022881 0.393651 3.324864 -3.824366 2.925485 -2.843739 0.000007 0.000007 -0.000003 -10.198327 -0.000006 0.065390 -0.000007 0.000001 -0.000001 -0.000001 -7.914280 -5.288070 -0.000006 -12.093925 -12.665014 20.201817 -0.000013 0.000005 -7.100822 29.120945 93.107602 29.446445 -0.000012 0.000003 114.062315 -4.314118 -9.562436 23.111872 -0.000012 0.000007 179.759828 9.781348 1.413511 3.824399 2.925477 -2.843762 0.000003 0.000009 -0.000003 10.198357 -0.000017 0.065365 0.000003 0.000001 -0.000000 -10.695510 -0.000018 0.000017 4.482373 10.597123 3.101896 -0.000000 46.236313 -0.000014 -1.390150 -0.000001 0.000000 0.000001 41.248119 -0.000024 -1.198197 -3.314320 -5.814346 0.000001 3.207336 -0.000016 -0.000000 -0.000000 0.000000 0.000006 0.000001 -12.560958 9.155694 -0.000000 -0.000001 0.000002 0.000015 -3.517771 0.000000 -0.000000 -0.000000 10.695511 -0.000028 0.000033 3.020100 -13.573643 3.213298 -0.000003 46.236351 -0.000030 3.428484 0.000002 0.000000 0.000001 41.248142 -0.000010 -5.242717 -9.967789 -4.485361 -0.000005 3.207336 -0.000000 -0.000000 0.000001 0.000000 0.000007 -0.000006 -12.560952 13.714870 -0.000000 -0.000001 0.000008 -0.000000 -3.901835 0.000000 0.000004 -0.000002 
